<svg xmlns="http://www.w3.org/2000/svg" width="40" height="40" fill="none"><path fill="#FFC107" d="m38.212 13.777-11.729-1.785L21.24.862a1.506 1.506 0 0 0-.67-.702c-.73-.378-1.617-.063-1.981.701l-5.243 11.131-11.73 1.785a1.453 1.453 0 0 0-.845.45 1.59 1.59 0 0 0-.419 1.101c.005.411.166.803.447 1.09l8.486 8.664L7.28 37.316c-.047.284-.017.577.087.845.104.267.277.499.5.669a1.421 1.421 0 0 0 1.556.116l10.491-5.776 10.491 5.776c.287.16.62.213.938.155.804-.145 1.344-.944 1.206-1.785l-2.005-12.234 8.486-8.664c.23-.237.383-.546.43-.885.124-.847-.44-1.63-1.248-1.756Z"/></svg>